PathFileType	4	(X/Y/Z)	C:/Users/opensim2020/Desktop/walking_exp_matlab/subject03_walking11_straight_02.trc																																																																																																																																								
DataRate	CameraRate	NumFrames	NumMarkers	Units	OrigDataRate	OrigDataStartFrame	OrigNumFrames																																																																																																																																				
100	100	5	46	mm	100	1888	357																																																																																																																																				
Frame#	Time	LFHD			RFHD			LBHD			RBHD			C7			T10			CLAV			STRN			RBAK			LSHO			LUPA			LELB			LFRM			LWRA			LWRB			LFIN			RSHO			RUPA			RELB			RFRM			RWRA			RWRB			RFIN			LASI			RASI			LPSI			RPSI			LTHI			LKNE			LTIB			LANK			LHEE			LTOE			RTHI			RKNE			RTIB			RANK			RHEE			RTOE			*39			*40			*41			*42			*43			*44			*45		
		X1	Y1	Z1	X2	Y2	Z2	X3	Y3	Z3	X4	Y4	Z4	X5	Y5	Z5	X6	Y6	Z6	X7	Y7	Z7	X8	Y8	Z8	X9	Y9	Z9	X10	Y10	Z10	X11	Y11	Z11	X12	Y12	Z12	X13	Y13	Z13	X14	Y14	Z14	X15	Y15	Z15	X16	Y16	Z16	X17	Y17	Z17	X18	Y18	Z18	X19	Y19	Z19	X20	Y20	Z20	X21	Y21	Z21	X22	Y22	Z22	X23	Y23	Z23	X24	Y24	Z24	X25	Y25	Z25	X26	Y26	Z26	X27	Y27	Z27	X28	Y28	Z28	X29	Y29	Z29	X30	Y30	Z30	X31	Y31	Z31	X32	Y32	Z32	X33	Y33	Z33	X34	Y34	Z34	X35	Y35	Z35	X36	Y36	Z36	X37	Y37	Z37	X38	Y38	Z38	X39	Y39	Z39	X40	Y40	Z40	X41	Y41	Z41	X42	Y42	Z42	X43	Y43	Z43	X44	Y44	Z44	X45	Y45	Z45	X46	Y46	Z46
																																																																																																																																											
90	0.89	-475.46716	1623.01013	959.69489	-492.7886	1620.97607	1091.57739	-602.62128	1577.89771	945.66479	-614.33655	1575.22021	1076.16577	-635.42792	1416.1217	1000.25366	-673.35364	1104.22668	1005.05078	-512.73993	1340.26929	1004.45007	-471.88266	1174.49805	996.70404	-690.4093	1241.76465	1095.95435	-551.77454	1378.15234	848.28564	-545.63055	1183.32593	775.90375	-525.95587	1061.60803	764.66229	-472.75671	942.9754	770.09912	-426.6922	835.58722	806.47833	-450.24835	831.83716	755.53809	-411.50003	757.73364	768.97729	-561.53503	1362.7312	1163.42969	-568.6026	1138.90344	1231.31665	-556.90973	1026.29224	1242.57349	-546.21082	889.75037	1243.52393	-519.82733	792.75433	1208.64954	-552.14264	789.49139	1251.76306	-533.979	716.41931	1240.33948	-515.75189	936.24304	882.56842	-497.17905	942.98279	1118.87305	-673.15802	961.65204	945.98773	-660.57056	970.30566	1093.80579	-607.32404	638.07904	840.76959	-631.40289	459.64325	864.01624	-768.78265	310.34055	870.24976	-882.22302	133.33173	915.60248	-930.96118	124.45409	956.18652	-769.75244	28.61763	942.03802	-517.37225	646.91858	1161.65222	-474.19974	472.00949	1121.83691	-488.62146	283.32635	1128.04602	-479.94434	67.66236	1079.6748	-523.90216	34.97943	1029.61292	-337.20404	32.42949	1058.29358	NaN	NaN	NaN	NaN	NaN	NaN	NaN	NaN	NaN	NaN	NaN	NaN	NaN	NaN	NaN	NaN	NaN	NaN	NaN	NaN	NaN
91	0.9	-467.33038	1623.58508	960.67059	-484.50659	1621.63672	1092.5321	-594.61536	1578.9043	946.78314	-606.12823	1576.19995	1077.1333	-627.48584	1416.78015	1001.62933	-664.953	1104.79346	1007.11664	-504.62271	1341.19519	1005.38849	-463.30286	1175.64343	997.59833	-681.70313	1242.39441	1097.73865	-544.23633	1379.05371	849.42169	-539.11011	1183.95557	777.46466	-520.97369	1061.89514	766.40857	-469.88147	942.61523	771.08722	-425.54077	833.88202	807.21741	-449.49963	830.78528	756.35291	-412.80841	755.36841	769.6582	-552.91162	1363.83789	1164.46899	-559.50397	1140.03015	1232.85986	-547.67151	1027.479	1244.13391	-536.5589	890.98474	1244.95813	-510.15073	794.00116	1210.04114	-542.27002	790.70251	1253.24756	-524.35114	717.59143	1241.55261	-507.59845	937.24542	884.0495	-488.37802	943.38684	1120.06128	-664.97931	962.52808	947.83057	-651.70776	971.27771	1095.60034	-596.32819	638.15613	840.23865	-617.53284	459.2059	861.69	-757.59619	312.42444	868.87683	-875.26117	138.87679	914.85406	-923.67334	132.22157	955.93909	-768.51697	28.82749	942.03442	-511.62848	647.0155	1162.60034	-469.56726	471.75351	1122.73157	-485.90018	283.23083	1128.53259	-479.7973	67.57589	1079.53052	-523.93378	35.00471	1029.56897	-337.09222	32.31955	1058.17114	-555.13226	1683.30786	1002.77307	NaN	NaN	NaN	NaN	NaN	NaN	NaN	NaN	NaN	NaN	NaN	NaN	NaN	NaN	NaN	NaN	NaN	NaN
92	0.91	-459.21265	1624.08276	961.62958	-476.22986	1622.11157	1093.47498	-586.71362	1579.80945	947.87146	-598.05157	1577.11267	1078.29211	-619.57532	1417.2959	1003.00146	-656.63599	1105.20825	1009.28113	-496.65289	1341.87732	1006.35797	-454.91672	1176.42114	998.53192	-673.11823	1242.84009	1099.65417	-536.79761	1379.69165	850.55121	-532.66956	1184.42139	778.92242	-515.88892	1062.11511	768.07697	-467.09778	941.85748	772.15833	-424.42285	831.96545	807.74255	-448.79434	829.58771	757.01874	-414.20792	752.95508	770.25824	-544.21613	1364.67395	1165.54443	-550.3125	1141.03088	1234.48682	-538.29559	1028.4646	1245.70691	-526.78271	892.01361	1246.44202	-500.3114	795.13385	1211.33899	-532.17236	791.67389	1254.71692	-514.22089	718.50586	1242.75378	-499.94983	937.86438	885.52667	-479.75833	943.53137	1121.21069	-656.93799	963.06335	949.64368	-643.01849	972.03448	1097.41504	-585.21552	638.09839	839.69653	-603.30078	458.56027	859.49689	-745.60205	314.36572	867.58423	-867.32428	144.39365	914.02588	-915.40363	140.22728	955.73761	-767.54407	28.68507	942.00952	-505.42368	647.46631	1163.61108	-465.02698	471.47867	1123.66467	-483.27887	283.14294	1128.98279	-479.61868	67.42395	1079.38245	-523.87427	35.02548	1029.54749	-336.98569	32.18477	1058.07947	-546.66388	1684.08997	1003.64673	NaN	NaN	NaN	NaN	NaN	NaN	NaN	NaN	NaN	NaN	NaN	NaN	NaN	NaN	NaN	NaN	NaN	NaN
93	0.92	-451.20975	1624.36401	962.45618	-467.98053	1622.31689	1094.3219	-578.72205	1580.48901	948.89063	-590.02905	1577.85303	1079.43372	-611.75079	1417.59961	1004.3728	-648.42139	1105.46936	1011.41437	-488.75223	1342.36218	1007.29608	-446.63434	1177.00903	999.41187	-664.51001	1243.04578	1101.61133	-529.58466	1380.03723	851.57794	-526.40344	1184.54163	780.21155	-510.9205	1062.03613	769.66345	-464.07034	940.79993	773.22089	-423.2048	830.05646	808.24432	-447.95667	828.24249	757.65802	-415.5762	750.46185	770.76245	-535.59247	1365.30249	1166.58521	-541.02722	1141.75269	1236.10901	-528.76477	1029.21765	1247.36584	-516.79395	892.8374	1247.93579	-490.25412	796.02106	1212.60901	-521.77515	792.44452	1256.21033	-503.73325	719.28046	1244.02808	-492.88293	938.2243	887.01746	-471.24353	943.37775	1122.35498	-649.27625	963.31573	951.38647	-634.43579	972.55725	1099.13513	-573.96814	637.74963	839.04883	-588.77747	457.74622	857.5285	-732.85974	316.13547	866.35992	-858.36249	149.7092	913.39825	-906.0957	148.129	955.52478	-766.52765	28.94922	941.05054	-499.49548	648.14545	1164.78638	-460.63394	471.18039	1124.66968	-480.72623	282.98462	1129.57959	-479.50519	67.364	1079.24487	-523.84125	35.08879	1029.53015	-336.83139	32.08563	1058.03052	-538.26703	1684.74036	1004.68066	NaN	NaN	NaN	NaN	NaN	NaN	NaN	NaN	NaN	NaN	NaN	NaN	NaN	NaN	NaN	NaN	NaN	NaN
94	0.93	-443.22006	1624.44983	963.18634	-459.76511	1622.5415	1095.10327	-570.99011	1580.97461	949.92535	-581.97583	1578.35449	1080.40381	-603.94855	1417.75928	1005.77271	-640.29755	1105.52454	1013.53888	-480.91904	1342.63879	1008.14618	-438.55731	1177.38831	1000.17261	-656.04932	1243.13916	1103.68933	-522.50891	1380.11963	852.60327	-520.3252	1184.40771	781.56287	-505.71979	1061.69946	771.1394	-461.01257	939.61816	774.15955	-421.96167	827.96863	808.65271	-447.0827	826.77496	758.19647	-416.95004	747.95782	771.19885	-526.914	1365.69775	1167.63892	-531.66241	1142.29724	1237.78198	-519.08636	1029.78516	1249.00183	-506.58679	893.41254	1249.50488	-480.02542	796.76581	1213.87805	-511.14468	793.01257	1257.74158	-492.93765	719.92548	1245.27222	-484.48285	938.66803	888.09155	-462.89862	943.14264	1123.44897	-641.73511	963.20953	952.97095	-626.16443	972.92786	1100.70935	-562.65009	637.21606	838.44061	-573.8855	456.90533	855.80054	-719.56152	317.65057	865.23047	-848.55176	154.69826	912.7218	-895.90802	155.87943	955.32471	-764.45996	29.4083	940.0575	-493.371	648.31415	1166.20557	-456.32877	470.90411	1125.78394	-478.21243	282.8345	1130.15002	-479.42795	67.29712	1079.15308	-523.8017	35.13524	1029.49536	-336.68951	31.97694	1057.98279	-530.12799	1685.1593	1005.71198	NaN	NaN	NaN	NaN	NaN	NaN	NaN	NaN	NaN	NaN	NaN	NaN	NaN	NaN	NaN	NaN	NaN	NaN
